<svg xmlns="http://www.w3.org/2000/svg" viewBox="0 0 530.28 692.39"><defs><style>.cls-1{fill:#7563ff;}</style></defs><g id="Layer_2" data-name="Layer 2"><g id="Layer_1-2" data-name="Layer 1"><path class="cls-1" d="M190.61,317.3c52.93,0,105.9,1.16,158.78-.35,46.53-1.32,82.17-24.09,105.88-63.89,46.88-78.69-2.39-181.11-93-194.29-8.09-1.18-16.23-1.25-24.39-1.25q-149.31,0-298.63-.1c-5.81,0-11.63.56-17.4-.77C8,53.45-.71,41.36.05,26.22.68,13.39,11.33,2.3,24.52.5A86.64,86.64,0,0,1,36.46.12C134,.14,231.55.35,329.09,0c29.26-.1,58,2.26,84.92,14.23,70.38,31.28,110.67,85.42,115.6,162.36,4.5,70.21-24.88,125.77-82.18,166.52-4.49,3.19-4.5,3,0,6.22,55.58,39.31,83.84,93.05,82.79,161.09-1.38,89.2-69.72,166.2-157.92,179.45-14,2.11-28.11,2.5-42.28,2.48q-146.56-.2-293.13,0c-11.14,0-21.39-1.36-28.79-10.51s-8.81-19.27-4.07-30c4.67-10.51,13.2-16,24.57-16.89,4.47-.35,9,0,13.47-.06,99.21,0,198.42-.28,297.63,0,37,.09,69.22-11.68,95-38,35.94-36.74,47.55-81.06,32.42-130.08-15.23-49.35-50-79.15-100.75-89.88-13.67-2.88-27.54-2.11-41.3-2.14q-143.31-.35-286.64-.13c-4,0-8,.21-12-.06A27.88,27.88,0,0,1,0,346.29c0-15.36,11.07-27.46,26.32-28.49,4.47-.31,9-.08,13.46-.08H190.61Z"/><path class="cls-1" d="M217,279.3H87.12c-18.81,0-30.48-12.25-30.4-31.17q.26-60.65,0-121.31c-.09-18.76,11.67-31.26,30.46-31.27q127.59,0,255.17,0c47.81.08,86.25,34.3,92.12,81.49,5.63,45.2-24,88.06-68.95,99.56a83.11,83.11,0,0,1-20.72,2.68Q280.88,279.27,217,279.3Zm14.38-56.94c36.94,0,73.89.19,110.83-.07,20.62-.15,35.7-15.43,35.59-35.22-.1-19.3-15.61-34.37-36-34.4-74.39-.1-148.78,0-223.17-.11-3.68,0-4.84.94-4.81,4.73q.27,29.94,0,59.9c0,4.1,1,5.29,5.2,5.28C156.44,222.3,193.89,222.37,231.33,222.36Z"/><path class="cls-1" d="M217,413.12H341.79c54.28,0,95.12,42.48,93,96.74-1.69,43.81-36.69,81.29-80.52,86.16a108.33,108.33,0,0,1-11.93.82q-127.59.07-255.18,0c-14.87,0-25.87-8.07-29.5-21.36a35.6,35.6,0,0,1-.88-9.41q-.07-61.15,0-122.31c0-18.72,11.73-30.67,30.38-30.67Zm14.53,56.93c-37.61,0-75.22,0-112.83-.08-3.57,0-4.88.71-4.85,4.61q.3,30.19,0,60.4c0,4.16,1.45,4.91,5.17,4.88,17-.17,33.95-.08,50.92-.08q85.64,0,171.25,0c24.3,0,41.19-20.62,35.62-43.16-4-16.19-17.76-26.48-35.95-26.53C304.37,470,267.92,470.05,231.48,470.05Z"/></g></g></svg>